<?xml version="1.0" encoding="UTF-8"?>
<svg id="Layer_1" data-name="Layer 1" xmlns="http://www.w3.org/2000/svg" viewBox="0 0 60.07 60.01">
  <defs>
    <style>
      .cls-1 {
        fill: #1f3f79;
      }

      .cls-2 {
        fill: #fff;
      }

      .cls-3 {
        fill: #f4c61d;
      }

      .cls-4 {
        fill: #3587ff;
      }
    </style>
  </defs>
  <circle class="cls-2" cx="30.03" cy="30.01" r="30"/>
  <path class="cls-4" d="M14.37,55.67c3.54-5.76,7.65-5.18,9.7-8.27.02-.03.03-.05.03-.05,1.78-2.72,2.01-4.58,1.86-5.8-.04-.39-.15-1.08-.57-1.82-.37-.64-.78-1.04-.96-1.15-.65-.4-1.63-.88-2.87-1.02-1.19-.13-1.99.12-2.58.22-3.14.52-7.36-2.28-7.2-4.05.15-1.71,4.5-3.98,4.84-4.5.05-.08.18-.39.44-.48.04-.01.13-.04.14-.1.01-.07-.1-.11-.14-.19-.12-.22.35-.68.35-.68.65-.65,1.11-2.95,1.44-4.02.32-1.03.99-2.42,2.56-3.94,1.28-1.24,2.54-1.83,3.58-2.31.71-.33,2.47-1.07,4.88-1.34,1.41-.16,3.22-.37,5.43.32,1.81.56,3.01,1.46,3.61,1.91,1.8,1.36,2.77,2.84,3.45,3.93.61.98,1.41,2.45,2.01,4.4.48,1.67.7,3.08.81,4.07,0,0,.73,6.41-1.59,11.77,0,0-.01.03-.03.07-.04.1-.12.29-.22.52-1.35,3.22-2.03,4.84-1.82,6.09.08.52.46,2.02,2.94,3.45.67.27,1.74.59,3.06.57.76,0,1.41-.12,1.91-.26,2.25-1.93,6.97-6.53,9.31-14.05.17-.56,1.59-5.52,1.3-10.69C59.17,13.26,47,1.01,32,.06,14.52-1.05,0,12.8,0,30.04c0,10.85,5.75,20.35,14.37,25.63"/>
  <path class="cls-3" d="M21.59,36.82c-1.07.67-2.1.88-2.5.94,0,0-.04,0-.11.02-.87.13-1.67.23-1.98.27-.62.07-1.17.07-2.27.07-1.23,0-1.84,0-2.65-.08-1.29-.12-2.03-.2-2.87-.64-.6-.31-1.16-.59-1.4-1.23-.27-.74.05-1.56.44-2.03.29-.36.63-.52,1.12-.77.67-.33.8-.23,1.56-.55.38-.16.75-.39,1.48-.84.76-.47,1.12-.74,1.26-.84.36-.28.62-.52.7-.58.49-.45.78-.79,1.28-1.25.4-.37.53-.43.72-.58,0,0,.07-.06.15-.14.42-.4,1.05-1.4,1.4-1.3.18.05.14.34.46.48.04.02.11.04.29.06.48.04.66-.17.96-.07.27.09.43.36.55.67.63,1.57-.22,3.73.9,5.1.86,1.05,1.77,1.35,1.67,2.12-.07.49-.56.81-1.13,1.17Z"/>
  <path class="cls-1" d="M27.47,28.55h0c-.52.1-1.01-.18-1.09-.63l-.17-1.34c-.08-.44.27-.88.78-.98h0c.52-.1,1.01.18,1.09.63l.17,1.34c.08.44-.27.88-.78.98Z"/>
  <path class="cls-1" d="M15.77,32.12h0c-.07-.13.03-.31.22-.41l.58-.28c.19-.1.4-.08.47.05h0c.07.13-.03.31-.22.41l-.58.28c-.19.1-.4.08-.47-.05Z"/>
</svg>